<svg xmlns="http://www.w3.org/2000/svg" viewBox="0 0 240 200" width="240" height="200"><ellipse cx="120" cy="184" rx="80" ry="7" fill="#DFE4DE"/><path d="M64 96 C64 70 92 56 120 56 C148 56 176 70 176 96 V130 C176 158 152 172 120 172 C88 172 64 158 64 130Z" fill="#C7D2C4"/><path d="M176 102 C200 96 206 76 214 70" stroke="#C7D2C4" stroke-width="12" fill="none" stroke-linecap="round"/><path d="M64 104 C40 100 38 140 64 140" stroke="#4B5D49" stroke-width="8" fill="none"/><ellipse cx="120" cy="58" rx="40" ry="10" fill="#4B5D49"/><circle cx="120" cy="44" r="9" fill="#243341"/><path d="M84 112 C100 104 140 104 156 112" stroke="#fff" stroke-width="4" fill="none" opacity=".7"/></svg>