<svg xmlns="http://www.w3.org/2000/svg" viewBox="0 0 240 200" width="240" height="200"><ellipse cx="120" cy="184" rx="92" ry="7" fill="#DFE4DE"/><path d="M30 150 A90 90 0 0 0 210 150 Z" transform="rotate(180 120 150)" fill="#4B5D49"/><path d="M38 150 A82 82 0 0 0 202 150 Z" transform="rotate(180 120 150)" fill="#fff"/><path d="M46 150 A74 74 0 0 0 194 150 Z" transform="rotate(180 120 150)" fill="#C7D2C4"/><ellipse cx="170" cy="116" rx="3" ry="5" transform="rotate(56 170 116)" fill="#243341"/><ellipse cx="148" cy="106" rx="3" ry="5" transform="rotate(33 148 106)" fill="#243341"/><ellipse cx="131" cy="87" rx="3" ry="5" transform="rotate(10 131 87)" fill="#243341"/><ellipse cx="108" cy="97" rx="3" ry="5" transform="rotate(-13 108 97)" fill="#243341"/><ellipse cx="80" cy="105" rx="3" ry="5" transform="rotate(-42 80 105)" fill="#243341"/><ellipse cx="132" cy="118" rx="3" ry="5" transform="rotate(21 132 118)" fill="#243341"/><ellipse cx="108" cy="116" rx="3" ry="5" transform="rotate(-19 108 116)" fill="#243341"/><ellipse cx="145" cy="119" rx="3" ry="5" transform="rotate(38 145 119)" fill="#243341"/></svg>