<svg xmlns="http://www.w3.org/2000/svg" viewBox="0 0 240 200" width="240" height="200"><ellipse cx="120" cy="184" rx="84" ry="7" fill="#DFE4DE"/><rect x="34" y="104" width="130" height="50" rx="25" transform="rotate(-14 99 129)" fill="#4B5D49"/><g><circle cx="176" cy="128" r="28" fill="#71836D"/><circle cx="176" cy="128" r="22" fill="#EEF2ED"/><ellipse cx="185.0" cy="128.0" rx="2" ry="4" transform="rotate(90 185.0 128.0)" fill="#C7D2C4"/><ellipse cx="180.5" cy="135.8" rx="2" ry="4" transform="rotate(150 180.5 135.8)" fill="#C7D2C4"/><ellipse cx="171.5" cy="135.8" rx="2" ry="4" transform="rotate(210 171.5 135.8)" fill="#C7D2C4"/><ellipse cx="167.0" cy="128.0" rx="2" ry="4" transform="rotate(270 167.0 128.0)" fill="#C7D2C4"/><ellipse cx="171.5" cy="120.2" rx="2" ry="4" transform="rotate(330 171.5 120.2)" fill="#C7D2C4"/><ellipse cx="180.5" cy="120.2" rx="2" ry="4" transform="rotate(390 180.5 120.2)" fill="#C7D2C4"/></g><g><circle cx="150" cy="158" r="28" fill="#71836D"/><circle cx="150" cy="158" r="22" fill="#EEF2ED"/><ellipse cx="159.0" cy="158.0" rx="2" ry="4" transform="rotate(90 159.0 158.0)" fill="#C7D2C4"/><ellipse cx="154.5" cy="165.8" rx="2" ry="4" transform="rotate(150 154.5 165.8)" fill="#C7D2C4"/><ellipse cx="145.5" cy="165.8" rx="2" ry="4" transform="rotate(210 145.5 165.8)" fill="#C7D2C4"/><ellipse cx="141.0" cy="158.0" rx="2" ry="4" transform="rotate(270 141.0 158.0)" fill="#C7D2C4"/><ellipse cx="145.5" cy="150.2" rx="2" ry="4" transform="rotate(330 145.5 150.2)" fill="#C7D2C4"/><ellipse cx="154.5" cy="150.2" rx="2" ry="4" transform="rotate(390 154.5 150.2)" fill="#C7D2C4"/></g></svg>