<svg xmlns="http://www.w3.org/2000/svg" width="480" height="160" viewBox="0 0 480 160" preserveAspectRatio="xMidYMid slice"><rect width="480" height="160" fill="none" stroke="none" />
<g transform="translate(0 -10)"><circle cx="250" cy="88" r="76" fill="#F3F5F2" stroke="none" stroke-width="2" /><circle cx="250" cy="88" r="62" fill="none" stroke="#F3F5F2" stroke-width="2" />
<ellipse cx="269" cy="59" rx="3.2" ry="1.9" transform="rotate(158 269 59)" fill="#DFE4DE" stroke="none" /><ellipse cx="260" cy="65" rx="3.2" ry="1.9" transform="rotate(174 260 65)" fill="#DFE4DE" stroke="none" /><ellipse cx="284" cy="49" rx="3.2" ry="1.9" transform="rotate(19 284 49)" fill="#DFE4DE" stroke="none" /><ellipse cx="259" cy="44" rx="3.2" ry="1.9" transform="rotate(75 259 44)" fill="#DFE4DE" stroke="none" /><ellipse cx="255" cy="65" rx="3.2" ry="1.9" transform="rotate(158 255 65)" fill="#DFE4DE" stroke="none" /><ellipse cx="289" cy="58" rx="3.2" ry="1.9" transform="rotate(49 289 58)" fill="#DFE4DE" stroke="none" /><ellipse cx="257" cy="54" rx="3.2" ry="1.9" transform="rotate(113 257 54)" fill="#DFE4DE" stroke="none" /><ellipse cx="287" cy="74" rx="3.2" ry="1.9" transform="rotate(74 287 74)" fill="#DFE4DE" stroke="none" /><ellipse cx="277" cy="57" rx="3.2" ry="1.9" transform="rotate(34 277 57)" fill="#DFE4DE" stroke="none" /><ellipse cx="265" cy="46" rx="3.2" ry="1.9" transform="rotate(64 265 46)" fill="#DFE4DE" stroke="none" /><ellipse cx="270" cy="53" rx="3.2" ry="1.9" transform="rotate(97 270 53)" fill="#DFE4DE" stroke="none" /><ellipse cx="255" cy="81" rx="3.2" ry="1.9" transform="rotate(153 255 81)" fill="#DFE4DE" stroke="none" /><ellipse cx="270" cy="57" rx="3.2" ry="1.9" transform="rotate(40 270 57)" fill="#DFE4DE" stroke="none" /><ellipse cx="266" cy="50" rx="3.2" ry="1.9" transform="rotate(84 266 50)" fill="#DFE4DE" stroke="none" /><ellipse cx="273" cy="58" rx="3.2" ry="1.9" transform="rotate(146 273 58)" fill="#DFE4DE" stroke="none" /><ellipse cx="294" cy="63" rx="3.2" ry="1.9" transform="rotate(2 294 63)" fill="#DFE4DE" stroke="none" /><ellipse cx="259" cy="78" rx="3.2" ry="1.9" transform="rotate(93 259 78)" fill="#DFE4DE" stroke="none" /><ellipse cx="275" cy="82" rx="3.2" ry="1.9" transform="rotate(11 275 82)" fill="#DFE4DE" stroke="none" /><ellipse cx="278" cy="72" rx="3.2" ry="1.9" transform="rotate(116 278 72)" fill="#DFE4DE" stroke="none" /><ellipse cx="269" cy="51" rx="3.2" ry="1.9" transform="rotate(43 269 51)" fill="#DFE4DE" stroke="none" /><ellipse cx="269" cy="70" rx="3.2" ry="1.9" transform="rotate(93 269 70)" fill="#DFE4DE" stroke="none" /><ellipse cx="271" cy="45" rx="3.2" ry="1.9" transform="rotate(92 271 45)" fill="#DFE4DE" stroke="none" /><ellipse cx="289" cy="59" rx="3.2" ry="1.9" transform="rotate(74 289 59)" fill="#DFE4DE" stroke="none" /><ellipse cx="254" cy="58" rx="3.2" ry="1.9" transform="rotate(146 254 58)" fill="#DFE4DE" stroke="none" /><ellipse cx="290" cy="59" rx="3.2" ry="1.9" transform="rotate(24 290 59)" fill="#DFE4DE" stroke="none" /><ellipse cx="286" cy="52" rx="3.2" ry="1.9" transform="rotate(112 286 52)" fill="#DFE4DE" stroke="none" /><ellipse cx="280" cy="67" rx="3.2" ry="1.9" transform="rotate(53 280 67)" fill="#DFE4DE" stroke="none" /><ellipse cx="292" cy="58" rx="3.2" ry="1.9" transform="rotate(108 292 58)" fill="#DFE4DE" stroke="none" /><ellipse cx="281" cy="68" rx="3.2" ry="1.9" transform="rotate(53 281 68)" fill="#DFE4DE" stroke="none" /><ellipse cx="264" cy="54" rx="3.2" ry="1.9" transform="rotate(29 264 54)" fill="#DFE4DE" stroke="none" /><ellipse cx="273" cy="56" rx="3.2" ry="1.9" transform="rotate(15 273 56)" fill="#DFE4DE" stroke="none" /><ellipse cx="256" cy="45" rx="3.2" ry="1.9" transform="rotate(15 256 45)" fill="#DFE4DE" stroke="none" /><ellipse cx="256" cy="69" rx="3.2" ry="1.9" transform="rotate(14 256 69)" fill="#DFE4DE" stroke="none" /><ellipse cx="294" cy="57" rx="3.2" ry="1.9" transform="rotate(43 294 57)" fill="#DFE4DE" stroke="none" /><ellipse cx="287" cy="74" rx="3.2" ry="1.9" transform="rotate(152 287 74)" fill="#DFE4DE" stroke="none" /><ellipse cx="295" cy="70" rx="3.2" ry="1.9" transform="rotate(173 295 70)" fill="#DFE4DE" stroke="none" /><ellipse cx="298" cy="61" rx="3.2" ry="1.9" transform="rotate(38 298 61)" fill="#DFE4DE" stroke="none" /><ellipse cx="263" cy="83" rx="3.2" ry="1.9" transform="rotate(155 263 83)" fill="#DFE4DE" stroke="none" /><ellipse cx="266" cy="44" rx="3.2" ry="1.9" transform="rotate(10 266 44)" fill="#DFE4DE" stroke="none" /><ellipse cx="280" cy="52" rx="3.2" ry="1.9" transform="rotate(139 280 52)" fill="#DFE4DE" stroke="none" /><ellipse cx="294" cy="80" rx="3.2" ry="1.9" transform="rotate(125 294 80)" fill="#DFE4DE" stroke="none" /><ellipse cx="282" cy="57" rx="3.2" ry="1.9" transform="rotate(149 282 57)" fill="#DFE4DE" stroke="none" /><ellipse cx="265" cy="62" rx="3.2" ry="1.9" transform="rotate(63 265 62)" fill="#DFE4DE" stroke="none" /><ellipse cx="281" cy="77" rx="3.2" ry="1.9" transform="rotate(82 281 77)" fill="#DFE4DE" stroke="none" /><ellipse cx="274" cy="80" rx="3.2" ry="1.9" transform="rotate(9 274 80)" fill="#DFE4DE" stroke="none" /><ellipse cx="289" cy="52" rx="3.2" ry="1.9" transform="rotate(31 289 52)" fill="#DFE4DE" stroke="none" /><ellipse cx="274" cy="46" rx="3.2" ry="1.9" transform="rotate(135 274 46)" fill="#DFE4DE" stroke="none" /><ellipse cx="257" cy="54" rx="3.2" ry="1.9" transform="rotate(74 257 54)" fill="#DFE4DE" stroke="none" /><ellipse cx="271" cy="77" rx="3.2" ry="1.9" transform="rotate(104 271 77)" fill="#DFE4DE" stroke="none" /><ellipse cx="293" cy="55" rx="3.2" ry="1.9" transform="rotate(166 293 55)" fill="#DFE4DE" stroke="none" /><ellipse cx="261" cy="61" rx="3.2" ry="1.9" transform="rotate(51 261 61)" fill="#DFE4DE" stroke="none" /><ellipse cx="265" cy="58" rx="3.2" ry="1.9" transform="rotate(122 265 58)" fill="#DFE4DE" stroke="none" /><ellipse cx="283" cy="41" rx="3.2" ry="1.9" transform="rotate(51 283 41)" fill="#DFE4DE" stroke="none" /><ellipse cx="256" cy="62" rx="3.2" ry="1.9" transform="rotate(61 256 62)" fill="#DFE4DE" stroke="none" /><ellipse cx="298" cy="45" rx="3.2" ry="1.9" transform="rotate(112 298 45)" fill="#DFE4DE" stroke="none" /><ellipse cx="272" cy="83" rx="3.2" ry="1.9" transform="rotate(105 272 83)" fill="#DFE4DE" stroke="none" /><ellipse cx="274" cy="41" rx="3.2" ry="1.9" transform="rotate(125 274 41)" fill="#DFE4DE" stroke="none" /><ellipse cx="274" cy="58" rx="3.2" ry="1.9" transform="rotate(9 274 58)" fill="#DFE4DE" stroke="none" /><ellipse cx="274" cy="49" rx="3.2" ry="1.9" transform="rotate(56 274 49)" fill="#DFE4DE" stroke="none" /><ellipse cx="295" cy="66" rx="3.2" ry="1.9" transform="rotate(107 295 66)" fill="#DFE4DE" stroke="none" />
<path d="M246 110 C258 98 286 92 304 98 C318 103 318 122 304 130 C284 140 254 140 244 130 C238 124 240 116 246 110Z" fill="#4A5966" stroke="none" />
<g stroke-width="2.5" stroke-linecap="round" opacity=".85"><path d="M258 108 C262 116 262 126 258 134" fill="none" stroke="#DFE4DE" /><path d="M272 102 C277 112 277 126 272 136" fill="none" stroke="#DFE4DE" /><path d="M287 99 C292 110 292 126 287 136" fill="none" stroke="#DFE4DE" /><path d="M301 101 C305 110 305 122 301 130" fill="none" stroke="#DFE4DE" /></g>
<path d="M212 110 L216 126" stroke="#A3B19F" stroke-width="6" stroke-linecap="round" fill="none" /><circle cx="204" cy="104" r="8" fill="#C7D2C4" stroke="none" /><circle cx="212" cy="97" r="9" fill="#C7D2C4" stroke="none" /><circle cx="220" cy="104" r="8" fill="#C7D2C4" stroke="none" /><circle cx="212" cy="108" r="8" fill="#C7D2C4" stroke="none" /><circle cx="209" cy="99" r="2" fill="#DFE4DE" stroke="none" /><path d="M232 124 L236 140" stroke="#A3B19F" stroke-width="6" stroke-linecap="round" fill="none" /><circle cx="224" cy="118" r="8" fill="#C7D2C4" stroke="none" /><circle cx="232" cy="111" r="9" fill="#C7D2C4" stroke="none" /><circle cx="240" cy="118" r="8" fill="#C7D2C4" stroke="none" /><circle cx="232" cy="122" r="8" fill="#C7D2C4" stroke="none" /><circle cx="229" cy="113" r="2" fill="#DFE4DE" stroke="none" /><path d="M206 134 L210 150" stroke="#A3B19F" stroke-width="6" stroke-linecap="round" fill="none" /><circle cx="198" cy="128" r="8" fill="#C7D2C4" stroke="none" /><circle cx="206" cy="121" r="9" fill="#C7D2C4" stroke="none" /><circle cx="214" cy="128" r="8" fill="#C7D2C4" stroke="none" /><circle cx="206" cy="132" r="8" fill="#C7D2C4" stroke="none" /><circle cx="203" cy="123" r="2" fill="#DFE4DE" stroke="none" />
</g><g><rect x="368" y="34" width="6" height="96" rx="3" fill="#4A5966" stroke="none" /><rect x="360" y="20" width="3" height="26" rx="1.5" fill="#4A5966" stroke="none" /><rect x="366" y="20" width="3" height="26" rx="1.5" fill="#4A5966" stroke="none" /><rect x="372" y="20" width="3" height="26" rx="1.5" fill="#4A5966" stroke="none" /><rect x="378" y="20" width="3" height="26" rx="1.5" fill="#4A5966" stroke="none" /><path d="M360 44 h21 v4 a10 10 0 0 1 -10 10 h-1 a10 10 0 0 1 -10 -10Z" fill="#4A5966" stroke="none" /></g>
<g><path d="M96 122 C90 100 98 82 118 72 C126 92 118 110 96 122Z" fill="#C7D2C4" stroke="none" /></g><circle cx="132" cy="122" r="6" fill="#DFE4DE" stroke="none" /></svg>