<svg xmlns="http://www.w3.org/2000/svg" viewBox="0 0 240 200" width="240" height="200"><ellipse cx="120" cy="184" rx="90" ry="7" fill="#EEF2ED" stroke="none" /><ellipse cx="120" cy="152" rx="96" ry="18" fill="#F3F5F2" stroke="none" stroke-width="3" /><path d="M40 136 C50 96 96 78 150 82 C190 86 206 110 200 134 C186 150 70 156 40 136Z" fill="#DFE4DE" stroke="none" /><path d="M80 92 C70 110 74 130 84 146" stroke="#FFFFFF" stroke-width="4" fill="none" opacity=".8" /><path d="M110 92 C100 110 104 130 114 146" stroke="#FFFFFF" stroke-width="4" fill="none" opacity=".8" /><path d="M140 92 C130 110 134 130 144 146" stroke="#FFFFFF" stroke-width="4" fill="none" opacity=".8" /><path d="M170 92 C160 110 164 130 174 146" stroke="#FFFFFF" stroke-width="4" fill="none" opacity=".8" /><path d="M44 134 C80 146 160 146 198 130" stroke="#A3B19F" stroke-width="5" fill="none" /><path d="M168 70 C176 58 192 56 200 62 C192 74 178 76 168 70Z" fill="#C7D2C4" stroke="none" /></svg>